<svg width="512" height="512" viewBox="0 0 512 512" xmlns="http://www.w3.org/2000/svg" role="img" aria-label="Zebra">
  <defs>
    <linearGradient id="coat" x1="0" y1="0" x2="0" y2="1">
      <stop offset="0%" stop-color="#ffffff"/>
      <stop offset="100%" stop-color="#e7e2d7"/>
    </linearGradient>
    <clipPath id="headClip">
      <ellipse cx="256" cy="278" rx="88" ry="122"/>
    </clipPath>
  </defs>

  <!-- ears -->
  <ellipse cx="188" cy="172" rx="26" ry="46" transform="rotate(-22 188 172)" fill="url(#coat)"/>
  <ellipse cx="190" cy="178" rx="12" ry="27" transform="rotate(-22 190 178)" fill="#2b313c"/>
  <ellipse cx="324" cy="172" rx="26" ry="46" transform="rotate(22 324 172)" fill="url(#coat)"/>
  <ellipse cx="322" cy="178" rx="12" ry="27" transform="rotate(22 322 178)" fill="#2b313c"/>

  <!-- head -->
  <ellipse cx="256" cy="278" rx="88" ry="122" fill="url(#coat)"/>

  <!-- stripes -->
  <g clip-path="url(#headClip)" fill="#13161d">
    <path d="M244 146 L272 146 L265 262 L250 262 Z"/>
    <path d="M204 158 L230 150 L241 264 L222 266 Z"/>
    <path d="M282 150 L308 158 L290 266 L271 264 Z"/>
    <path d="M166 188 L192 172 L210 268 L186 272 Z"/>
    <path d="M320 172 L346 188 L326 272 L302 268 Z"/>
    <path d="M150 244 L174 234 L182 296 L156 300 Z"/>
    <path d="M338 234 L362 244 L356 300 L330 296 Z"/>
  </g>

  <!-- mane crest -->
  <path d="M224 176 Q256 132 288 176 Q256 160 224 176 Z" fill="#13161d"/>

  <!-- eyes -->
  <ellipse cx="212" cy="292" rx="12" ry="14" fill="#13161d"/>
  <ellipse cx="300" cy="292" rx="12" ry="14" fill="#13161d"/>

  <!-- muzzle -->
  <ellipse cx="256" cy="366" rx="60" ry="37" fill="#39414f"/>
  <ellipse cx="235" cy="362" rx="8" ry="10" fill="#12151b"/>
  <ellipse cx="277" cy="362" rx="8" ry="10" fill="#12151b"/>
</svg>
